<svg xmlns="http://www.w3.org/2000/svg" xmlns:xlink="http://www.w3.org/1999/xlink" viewBox="0 0 244.56 244.56"><defs><style>.cls-1{fill:url(#Gradiente_sem_nome_4);}.cls-2{fill:#fff;}.cls-3{fill:url(#Gradiente_sem_nome_5);}.cls-4{fill:url(#Gradiente_sem_nome_5-2);}</style><linearGradient id="Gradiente_sem_nome_4" y1="122.28" x2="244.56" y2="122.28" gradientUnits="userSpaceOnUse"><stop offset="0" stop-color="#7dff6b"/><stop offset="1" stop-color="#0b826f"/></linearGradient><linearGradient id="Gradiente_sem_nome_5" x1="87.58" y1="83.95" x2="155.24" y2="83.95" gradientUnits="userSpaceOnUse"><stop offset="0" stop-color="#0b826f"/><stop offset="1" stop-color="#7dff6b"/></linearGradient><linearGradient id="Gradiente_sem_nome_5-2" x1="60.22" y1="144.74" x2="182.61" y2="144.74" xlink:href="#Gradiente_sem_nome_5"/></defs><title>Ativo 5</title><g id="Camada_2" data-name="Camada 2"><g id="Camada_1-2" data-name="Camada 1"><path class="cls-1" d="M122.28,1A121.28,121.28,0,0,1,208,208,121.28,121.28,0,0,1,36.52,36.52,120.53,120.53,0,0,1,122.28,1m0-1A122.28,122.28,0,1,0,244.56,122.28,122.28,122.28,0,0,0,122.28,0Z"/><circle class="cls-2" cx="122.28" cy="122.28" r="112.28"/><path class="cls-3" d="M121.41,117.78a33.83,33.83,0,1,1,33.83-33.84A33.88,33.88,0,0,1,121.41,117.78Zm0-62.82a29,29,0,1,0,29,29A29,29,0,0,0,121.41,55Z"/><path class="cls-4" d="M182.61,176.55H60.22v-2.42a61.2,61.2,0,0,1,122.39,0Zm-117.5-4.84h112.6a56.35,56.35,0,0,0-112.6,0Z"/></g></g></svg>